<svg xmlns="http://www.w3.org/2000/svg" xmlns:xlink="http://www.w3.org/1999/xlink" width="500" zoomAndPan="magnify" viewBox="0 0 375 374.999991" height="500" preserveAspectRatio="xMidYMid meet" version="1.0"><defs><clipPath id="c66a9c4072"><path d="M 191 93 L 364.988281 93 L 364.988281 336.65625 L 191 336.65625 Z M 191 93 " clip-rule="nonzero"/></clipPath><clipPath id="297f235068"><path d="M 191 42 L 326 42 L 326 336.65625 L 191 336.65625 Z M 191 42 " clip-rule="nonzero"/></clipPath><clipPath id="424b22a1e5"><path d="M 191 65 L 345 65 L 345 336.65625 L 191 336.65625 Z M 191 65 " clip-rule="nonzero"/></clipPath><clipPath id="d45b257036"><path d="M 10.238281 93 L 184 93 L 184 336.65625 L 10.238281 336.65625 Z M 10.238281 93 " clip-rule="nonzero"/></clipPath><clipPath id="a0918f34d9"><path d="M 49 42 L 184 42 L 184 336.65625 L 49 336.65625 Z M 49 42 " clip-rule="nonzero"/></clipPath><clipPath id="c3bbf4e1b0"><path d="M 30 65 L 184 65 L 184 336.65625 L 30 336.65625 Z M 30 65 " clip-rule="nonzero"/></clipPath></defs><g clip-path="url(#c66a9c4072)"><path fill="#d52d5d" d="M 344.707031 93.195312 C 344.707031 98.304688 344.707031 103.421875 344.707031 108.535156 C 346.433594 109.066406 348.144531 109.621094 349.855469 110.183594 C 349.855469 178.753906 349.855469 247.3125 349.855469 315.878906 C 322.925781 306.871094 294.71875 303.0625 266.703125 304.445312 C 240.984375 309.742188 215.28125 320.625 191.058594 336.792969 C 246.667969 313.757812 309.144531 313.757812 364.75 336.792969 C 364.75 257.996094 364.75 179.203125 364.75 100.40625 C 358.164062 97.671875 351.476562 95.273438 344.707031 93.195312 " fill-opacity="1" fill-rule="nonzero"/></g><g clip-path="url(#297f235068)"><path fill="#d52d5d" d="M 202.566406 310.925781 C 238.632812 279.800781 277.652344 263.011719 313.714844 263.101562 C 313.714844 194.546875 313.714844 125.980469 313.714844 57.421875 C 277.652344 57.328125 238.632812 74.109375 202.566406 105.242188 C 202.566406 173.804688 202.566406 242.363281 202.566406 310.925781 Z M 325.226562 279.070312 C 282.273438 274.523438 234.011719 295.28125 191.058594 336.792969 C 191.058594 257.996094 191.058594 179.203125 191.058594 100.40625 C 234.011719 58.898438 282.273438 38.125 325.226562 42.6875 C 325.226562 121.480469 325.226562 200.277344 325.226562 279.070312 " fill-opacity="1" fill-rule="nonzero"/></g><g clip-path="url(#424b22a1e5)"><path fill="#d52d5d" d="M 325.226562 65.84375 C 325.226562 70.960938 325.226562 76.078125 325.226562 81.1875 C 327.335938 81.480469 329.445312 81.820312 331.535156 82.1875 C 331.535156 150.746094 331.535156 219.316406 331.535156 287.875 C 307.035156 283.496094 281.335938 284.859375 255.859375 291.664062 C 233.824219 301.515625 211.820312 316.726562 191.058594 336.792969 C 240.253906 303.949219 295.523438 292.941406 344.707031 306.164062 C 344.707031 227.367188 344.707031 148.574219 344.707031 69.78125 C 338.3125 68.054688 331.800781 66.75 325.226562 65.84375 " fill-opacity="1" fill-rule="nonzero"/></g><g clip-path="url(#d45b257036)"><path fill="#d52d5d" d="M 30.285156 93.195312 C 30.285156 98.304688 30.285156 103.421875 30.285156 108.535156 C 28.566406 109.066406 26.855469 109.621094 25.148438 110.183594 C 25.148438 178.753906 25.148438 247.3125 25.148438 315.878906 C 52.082031 306.871094 80.289062 303.0625 108.300781 304.445312 C 134.011719 309.742188 159.714844 320.625 183.9375 336.792969 C 128.332031 313.757812 65.855469 313.757812 10.246094 336.792969 C 10.246094 257.996094 10.246094 179.203125 10.246094 100.40625 C 16.84375 97.671875 23.527344 95.273438 30.285156 93.195312 " fill-opacity="1" fill-rule="nonzero"/></g><g clip-path="url(#a0918f34d9)"><path fill="#d52d5d" d="M 172.429688 105.242188 C 136.371094 74.109375 97.339844 57.328125 61.285156 57.421875 C 61.285156 125.980469 61.285156 194.546875 61.285156 263.101562 C 97.339844 263.011719 136.371094 279.800781 172.429688 310.925781 C 172.429688 242.363281 172.429688 173.804688 172.429688 105.242188 Z M 49.78125 42.6875 C 92.730469 38.125 140.988281 58.898438 183.9375 100.40625 C 183.9375 179.203125 183.9375 257.996094 183.9375 336.792969 C 140.988281 295.28125 92.730469 274.523438 49.78125 279.070312 C 49.78125 200.277344 49.78125 121.480469 49.78125 42.6875 " fill-opacity="1" fill-rule="nonzero"/></g><g clip-path="url(#c3bbf4e1b0)"><path fill="#d52d5d" d="M 49.78125 65.84375 C 49.78125 70.960938 49.78125 76.078125 49.78125 81.1875 C 47.664062 81.480469 45.550781 81.820312 43.460938 82.1875 C 43.460938 150.746094 43.460938 219.316406 43.460938 287.875 C 67.960938 283.496094 93.671875 284.859375 119.140625 291.664062 C 141.179688 301.515625 163.179688 316.726562 183.9375 336.792969 C 134.746094 303.949219 79.476562 292.941406 30.285156 306.164062 C 30.285156 227.367188 30.285156 148.574219 30.285156 69.78125 C 36.6875 68.054688 43.195312 66.75 49.78125 65.84375 " fill-opacity="1" fill-rule="nonzero"/></g></svg>